<svg width="80" height="80" viewBox="0 0 80 80" fill="none" xmlns="http://www.w3.org/2000/svg">
<path d="M68.2843 11.7157C60.7294 4.16077 50.6842 0 40 0C29.3158 0 19.2706 4.16077 11.7157 11.7157C4.16077 19.2706 0 29.3158 0 40C0 50.6842 4.16077 60.7294 11.7157 68.2843C19.2706 75.8392 29.3158 80 40 80C50.6842 80 60.7294 75.8392 68.2843 68.2843C75.8392 60.7294 80 50.6842 80 40C80 29.3158 75.8392 19.2706 68.2843 11.7157ZM6.25 40C6.25 21.3904 21.3904 6.25 40 6.25C40.0446 6.25 40.0891 6.25183 40.1337 6.25183L40.0452 6.33972L51.2744 17.6782C52.4896 18.894 52.4896 20.8716 51.2744 22.0874L51.1963 22.1655C50.6073 22.7545 49.8248 23.0786 48.9923 23.0786C48.1628 23.0786 47.3828 22.757 46.795 22.1729L44.9158 20.2618L44.8975 20.2435C43.1281 18.4741 40.7758 17.5 38.2733 17.5C35.7715 17.5 33.4192 18.4741 31.6498 20.2435C27.9974 23.8959 27.9974 29.8389 31.6498 33.4912L40.6812 42.5226C41.2488 43.0902 41.5613 43.8452 41.5613 44.6484C41.5613 45.4517 41.2488 46.2067 40.6812 46.7743C39.5087 47.9468 37.6007 47.9468 36.4319 46.7786L26.9287 37.2437C25.1593 35.4742 22.807 34.4995 20.3046 34.4995C17.8027 34.4995 15.4504 35.4742 13.681 37.2437C10.0287 40.896 10.0287 46.8384 13.6835 50.4932L17.5568 54.3579C18.7292 55.5304 18.7292 57.4384 17.5488 58.6182L14.3182 61.8719C9.29016 55.9766 6.25 48.3374 6.25 40ZM40 73.75C31.9733 73.75 24.5935 70.9314 18.7939 66.2347L21.9763 63.0298C25.5853 59.4208 25.5853 53.548 21.9739 49.9365L18.1006 46.0718C16.8854 44.856 16.8854 42.8784 18.1006 41.6632C18.6896 41.0742 19.472 40.7501 20.3046 40.7501C21.1377 40.7501 21.9202 41.0742 22.5055 41.6589L32.0093 51.1945C35.6183 54.8035 41.4911 54.8035 45.1001 51.1945C46.8488 49.4458 47.8113 47.121 47.8113 44.6484C47.8113 42.1759 46.8488 39.8511 45.1001 38.103L36.0693 29.0717C34.8535 27.8564 34.8535 25.8783 36.0693 24.6631C36.6577 24.0741 37.4408 23.75 38.2733 23.75C39.1028 23.75 39.8828 24.0717 40.4706 24.6558L42.3499 26.5668L42.3682 26.5851C44.137 28.3539 46.4899 29.3286 48.9917 29.3286C51.4941 29.3286 53.8464 28.3545 55.6158 26.5851L55.694 26.507C59.3463 22.8546 59.3463 16.9116 55.7043 13.2703L50.3687 7.88208C63.9209 12.2675 73.75 25.0061 73.75 40C73.75 58.6096 58.6096 73.75 40 73.75ZM52.5 61.875C52.5 64.4641 50.401 66.5625 47.8125 66.5625C45.224 66.5625 43.125 64.4641 43.125 61.875C43.125 59.2859 45.224 57.1875 47.8125 57.1875C50.401 57.1875 52.5 59.2859 52.5 61.875ZM66.875 36.875C66.875 40.3265 64.0765 43.125 60.625 43.125C57.1735 43.125 54.375 40.3265 54.375 36.875C54.375 33.4235 57.1735 30.625 60.625 30.625C64.0765 30.625 66.875 33.4235 66.875 36.875ZM62.6562 53.125C62.6562 54.8511 61.2573 56.25 59.5312 56.25C57.8052 56.25 56.4062 54.8511 56.4062 53.125C56.4062 51.3989 57.8052 50 59.5312 50C61.2573 50 62.6562 51.3989 62.6562 53.125ZM34.2188 60.7812C34.2188 62.5073 32.8198 63.9062 31.0938 63.9062C29.3677 63.9062 27.9688 62.5073 27.9688 60.7812C27.9688 59.0552 29.3677 57.6562 31.0938 57.6562C32.8198 57.6562 34.2188 59.0552 34.2188 60.7812ZM17.0312 24.0625C17.0312 22.3364 18.4302 20.9375 20.1562 20.9375C21.8823 20.9375 23.2812 22.3364 23.2812 24.0625C23.2812 25.7886 21.8823 27.1875 20.1562 27.1875C18.4302 27.1875 17.0312 25.7886 17.0312 24.0625Z" fill="#444444"/>
</svg>
