<svg width="42" height="38" viewBox="0 0 42 38" fill="none" xmlns="http://www.w3.org/2000/svg">
<path d="M38.6681 3.95367C36.494 1.5956 33.5107 0.296875 30.2673 0.296875C27.8429 0.296875 25.6226 1.06335 23.6679 2.57484C22.6816 3.3378 21.7879 4.27122 21 5.3607C20.2124 4.27155 19.3184 3.3378 18.3317 2.57484C16.3774 1.06335 14.1571 0.296875 11.7327 0.296875C8.48927 0.296875 5.50571 1.5956 3.33156 3.95367C1.18336 6.28419 0 9.46803 0 12.9191C0 16.4711 1.32372 19.7226 4.16565 23.1519C6.70798 26.2194 10.3619 29.3334 14.5932 32.9392C16.0381 34.1707 17.6758 35.5665 19.3764 37.0533C19.8256 37.4468 20.4021 37.6634 21 37.6634C21.5976 37.6634 22.1744 37.4468 22.623 37.0539C24.3235 35.5668 25.9622 34.1703 27.4077 32.9383C31.6384 29.3331 35.2923 26.2194 37.8347 23.1516C40.6766 19.7226 42 16.4711 42 12.9188C42 9.46803 40.8166 6.28419 38.6681 3.95367Z" fill="white"/>
</svg>
