<svg width="83" height="80" viewBox="0 0 83 80" fill="none" xmlns="http://www.w3.org/2000/svg">
<path d="M62.3343 67.5637L41.3181 56.7342L20.3018 67.5637L24.3177 44.6144L7.23414 28.2921L30.8354 24.9307L41.3181 4.11181L51.8007 24.9307L75.402 28.2921L58.319 44.6144L62.3343 67.5637ZM41.3181 49.454L53.714 55.8418L51.3485 42.3239L61.2957 32.8195L47.5413 30.8607L41.3181 18.5006L35.0948 30.8607L21.3398 32.8195L31.2876 42.3239L28.9221 55.8418L41.3181 49.454ZM82.6601 39.9577L72.9803 39.2382L72.5004 45.6916L82.1801 46.4111L82.6601 39.9577ZM78.4663 57.7798L70.5838 52.116L66.8081 57.3712L74.6906 63.035L78.4663 57.7798ZM61.5536 2.47592L55.5744 0L51.8606 8.96842L57.8391 11.4443L61.5536 2.47592ZM75.0393 14.8517L71.2302 9.62051L63.3837 15.3342L67.1928 20.5654L75.0393 14.8517ZM53.7298 78.3496L51.2545 68.9643L44.9972 70.6147L47.4732 80L53.7298 78.3496ZM10.1597 45.6916L9.67979 39.2382L0 39.9577L0.479922 46.4111L10.1597 45.6916ZM15.8519 57.3712L12.0762 52.116L4.19317 57.7798L7.96948 63.035L15.8519 57.3712ZM30.7995 8.96842L27.0856 0L21.1065 2.47592L24.821 11.4443L30.7995 8.96842ZM19.2763 15.3342L11.4298 9.62051L7.62073 14.8517L15.4672 20.5654L19.2763 15.3342ZM37.6628 70.6147L31.4056 68.9643L28.9303 78.3502L35.1869 80L37.6628 70.6147Z" fill="#444444"/>
</svg>
