<svg width="60" height="60" viewBox="0 0 60 60" fill="none" xmlns="http://www.w3.org/2000/svg">
<path d="M51.2132 8.78677C45.547 3.12057 38.0132 0 30 0C21.9868 0 14.453 3.12057 8.78677 8.78677C7.98065 9.5929 7.22809 10.4379 6.52679 11.3155L6.51581 11.3127C6.51306 11.321 6.51123 11.3297 6.50894 11.3379C2.29156 16.6255 0 23.1363 0 30C0 38.0132 3.12057 45.547 8.78677 51.2132C14.453 56.8794 21.9868 60 30 60C38.0132 60 45.547 56.8794 51.2132 51.2132C56.8794 45.547 60 38.0132 60 30C60 21.9868 56.8794 14.453 51.2132 8.78677ZM30 4.6875C32.9443 4.6875 35.7719 5.19424 38.4023 6.12259C38.3643 6.91544 38.2823 7.67258 38.0946 8.38028C37.804 9.47525 37.2473 10.3436 36.5666 10.7629C36.032 11.0925 35.2446 11.2729 34.411 11.4638C34.2609 11.4981 34.1107 11.5324 33.9619 11.5677C31.8443 12.0676 26.8849 13.239 24.9815 18.5445C24.8364 18.9482 23.9442 19.3437 23.0809 19.7264C21.747 20.3178 20.0871 21.0535 19.0297 22.674C18.116 24.0733 17.5031 25.7053 17.2357 27.3486C14.8233 25.1486 13.1122 22.9701 12.0204 20.7079C10.8064 18.192 10.4027 15.7745 10.8138 13.5077C15.4591 8.11066 22.337 4.6875 30 4.6875ZM45.3694 45.4243C45.0705 46.3701 44.1609 49.249 43.2939 50.7216C43.1964 50.8832 42.7739 51.4906 42.3486 52.0889C39.9358 53.443 37.2807 54.4148 34.4646 54.9184C34.2348 53.4682 33.9056 51.9159 33.3238 50.419C32.3936 48.0235 30.9334 46.1188 29.1023 44.9107C28.5796 44.566 28.0444 44.29 27.5725 44.0469C26.9893 43.7462 26.4386 43.4624 26.0921 43.1401C25.5162 42.6041 25.1253 41.6048 24.8978 40.0859C24.8438 39.7275 24.7984 39.3617 24.7508 38.9749C24.6931 38.5098 24.6323 38.0219 24.5526 37.5224C25.8984 37.5 28.8853 37.0381 30.2916 36.3927C30.7649 36.1752 31.1824 35.9258 31.5509 35.706C31.8626 35.5197 32.157 35.3439 32.4115 35.2332C34.0709 34.509 36.2311 35.7312 37.1315 37.2816C37.2757 37.5302 37.4194 37.8181 37.5719 38.123C38.1056 39.1919 38.7694 40.5222 40.123 41.4308C41.6528 42.4576 43.1886 42.4008 44.2049 42.3633C45.0417 42.3326 45.233 42.3532 45.4124 42.4956C45.7544 42.7661 45.856 43.8844 45.3694 45.4243ZM4.6875 30C4.6875 26.4661 5.41672 23.0997 6.7305 20.0414C7.00974 20.9441 7.36542 21.8468 7.79892 22.7454C9.26605 25.7849 11.5535 28.6327 14.7931 31.4516C15.0742 31.696 15.3603 31.9395 15.6473 32.1835C17.2801 33.5719 18.8219 34.883 19.4774 36.5012C19.8289 37.37 19.9599 38.4293 20.099 39.5503C20.1485 39.95 20.1993 40.3629 20.262 40.7803C20.5115 42.4452 21.0567 44.8572 22.8996 46.572C23.7181 47.3332 24.6249 47.8006 25.4247 48.2135C25.8279 48.4209 26.2083 48.6172 26.5215 48.8237C27.8041 49.6701 28.5526 51.0814 28.9549 52.1164C29.3477 53.1271 29.5944 54.2171 29.7794 55.3098C15.9233 55.1907 4.6875 43.8835 4.6875 30ZM50.2446 45.1776C50.7106 42.4471 50.0427 40.1816 48.3211 38.8193C46.7523 37.5783 45.1154 37.6392 44.0318 37.679C43.2838 37.7065 42.9781 37.7019 42.7354 37.5385C42.41 37.3206 42.0827 36.6641 41.7659 36.0297C41.5878 35.6726 41.4034 35.3041 41.1845 34.9269C40.1738 33.187 38.5771 31.794 36.6879 31.0039C34.612 30.136 32.4275 30.1117 30.537 30.9366C30.0096 31.1668 29.5518 31.4401 29.1481 31.6814C28.8556 31.8558 28.5791 32.021 28.336 32.1323C27.6132 32.4641 24.2574 33.0473 23.0521 32.8674C22.7614 32.7187 22.2597 32.1725 21.8669 30.2371C21.563 28.7393 22.0102 26.683 22.9546 25.2365C23.2544 24.7769 24.1319 24.3883 24.9802 24.012C26.4958 23.3405 28.5709 22.4203 29.3935 20.1274C30.3571 17.4413 32.7109 16.6795 35.0386 16.1298C35.1778 16.0973 35.3169 16.0652 35.4565 16.0332C36.5698 15.7782 37.8314 15.4893 39.0248 14.7546C40.7423 13.6963 42.0209 11.8597 42.6251 9.58237C42.7446 9.13239 42.8348 8.68103 42.9034 8.23196C50.327 12.6489 55.3125 20.7527 55.3125 30C55.3125 35.6891 53.4251 40.9456 50.2446 45.1776Z" fill="#444444"/>
</svg>
