<svg width="86" height="80" viewBox="0 0 86 80" fill="none" xmlns="http://www.w3.org/2000/svg">
<path d="M85.8728 32.4513C85.8728 28.901 83.2502 25.8833 78.0778 23.4809C74.6703 21.898 70.1104 20.5713 64.7768 19.5984C63.5909 8.59567 54.249 0 42.9364 0C31.6245 0 22.2832 8.59436 21.0961 19.5964C15.6733 20.5857 11.0519 21.9432 7.628 23.5595C2.56625 25.9482 0 28.9403 0 32.4513C0 32.524 0.00196548 32.5987 0.00393095 32.6747C0.0936876 36.8742 2.71104 41.767 7.78917 47.2218C11.1396 50.8206 14.4567 53.4799 15.0011 53.909C17.8465 56.3606 21.1085 58.1407 25.141 59.3481L19.6272 70.075C17.4128 70.6024 15.7657 72.5928 15.7657 74.9684C15.7657 77.7476 18.0181 80 20.7973 80C23.5765 80 25.8289 77.7476 25.8289 74.9684C25.8289 74.3696 25.7235 73.795 25.5322 73.2624L31.9586 60.7593C34.1822 61.0522 36.5991 61.2389 39.2466 61.3254V71.2189C38.2173 72.1401 37.5694 73.4786 37.5694 74.9684C37.5694 77.7476 39.8218 80 42.601 80C45.3802 80 47.6326 77.7476 47.6326 74.9684C47.6326 73.4786 46.9846 72.1401 45.9554 71.2189V61.3437C48.8597 61.2677 51.5039 61.0784 53.9175 60.7665L60.3407 73.263C60.1487 73.7957 60.0439 74.3696 60.0439 74.9684C60.0439 77.7476 62.2963 80 65.0755 80C67.8547 80 70.1071 77.7476 70.1071 74.9684C70.1071 72.5928 68.4601 70.6031 66.2456 70.075L60.7515 59.3861C64.9294 58.1649 68.2203 56.354 70.9189 53.8723C71.5845 53.3443 74.8184 50.7289 78.0837 47.2218C83.1618 41.767 85.7791 36.8749 85.8689 32.6747C85.8709 32.5987 85.8728 32.524 85.8728 32.4513ZM27.6765 21.9687C27.6765 13.5546 34.5222 6.70882 42.9364 6.70882C51.3506 6.70882 58.1964 13.5546 58.1964 21.9687V25.8853C48.9907 28.0545 36.7439 28.0584 27.6765 25.8958V21.9687ZM10.7996 29.4834C13.4065 28.2982 16.8801 27.2664 20.9677 26.4513V30.9536L23.3498 31.6749C28.7595 33.3128 35.6668 34.2123 42.8224 34.2123C42.8925 34.2123 42.9633 34.2123 43.034 34.2117C50.1543 34.1946 57.0695 33.2951 62.506 31.6802L64.9052 30.9673V26.45C68.9206 27.2506 72.3425 28.2615 74.9396 29.4231C78.3228 30.9359 79.1326 32.1997 79.1647 32.4467C79.107 32.9092 77.2162 35.2377 69.5561 37.3564C62.4208 39.3304 52.9669 40.4173 42.9364 40.4173C32.9066 40.4173 23.4527 39.3304 16.3167 37.3564C8.66577 35.2403 6.77106 32.9151 6.70947 32.4572C6.70947 32.4559 6.70947 32.4545 6.70947 32.4532C6.74288 32.2017 7.53104 30.9693 10.7996 29.4834ZM66.6767 48.6736L66.5601 48.764L66.4513 48.8656C63.5483 51.5701 58.252 54.6742 42.9364 54.6742C28.1613 54.6742 22.8598 51.8439 19.3317 48.785L19.1961 48.673C17.6925 47.5022 15.5993 45.6553 13.5552 43.5437C13.7111 43.5896 13.8664 43.6361 14.025 43.6813C21.7925 45.903 32.0601 47.1268 42.9364 47.1268C53.812 47.1268 64.0797 45.903 71.8472 43.6813C72.0084 43.6355 72.165 43.589 72.3229 43.5418C69.4159 46.526 66.7055 48.6514 66.6767 48.6736ZM42.9364 19.4529C41.5494 19.4529 40.4206 20.5818 40.4206 21.9687H33.7118C33.7118 16.8821 37.8498 12.7441 42.9364 12.7441V19.4529Z" fill="#444444"/>
</svg>
